<svg width="64" height="64" viewBox="0 0 512 512" fill="none" xmlns="http://www.w3.org/2000/svg">
  <defs>
    <linearGradient id="bg" x1="0" y1="0" x2="1" y2="1">
      <stop offset="0%" stop-color="#F7EFE9"/>
      <stop offset="100%" stop-color="#EADBCF"/>
    </linearGradient>
  </defs>
  <rect x="0" y="0" width="512" height="512" rx="120" fill="url(#bg)"/>
  <path d="M256 96c-74 0-134 60-134 134 0 96 118 186 126 192a14 14 0 0 0 16 0c8-6 126-96 126-192 0-74-60-134-134-134z" fill="#8B4E3C"/>
  <circle cx="256" cy="230" r="62" fill="#FFF8F3"/>
  <path d="M256 178l14 29 32 5-23 22 6 32-29-16-29 16 6-32-23-22 32-5 14-29z" fill="#8B4E3C"/>
</svg>
