<svg xmlns="http://www.w3.org/2000/svg" width="1600" height="700" viewBox="0 0 1600 700" fill="none">
  <defs>
    <linearGradient id="artBg" x1="0" y1="0" x2="1" y2="1">
      <stop offset="0%" stop-color="#223326"/>
      <stop offset="48%" stop-color="#467555"/>
      <stop offset="100%" stop-color="#6ea07f"/>
    </linearGradient>
    <radialGradient id="artGlow" cx="0" cy="0" r="1" gradientTransform="translate(1220 144) rotate(128) scale(198 198)">
      <stop offset="0" stop-color="#e9ffe9" stop-opacity="0.82"/>
      <stop offset="1" stop-color="#e9ffe9" stop-opacity="0"/>
    </radialGradient>
  </defs>

  <rect width="1600" height="700" fill="url(#artBg)"/>
  <rect width="1600" height="700" fill="url(#artGlow)"/>

  <path d="M0 500C164 446 336 436 514 462C692 488 856 550 1028 546C1200 542 1344 486 1600 508V700H0V500Z" fill="#17261a" fill-opacity="0.44"/>
  <path d="M0 558C180 522 362 518 550 544C738 570 942 620 1118 612C1294 604 1426 562 1600 582V700H0V558Z" fill="#132015" fill-opacity="0.33"/>

  <g fill="#dff8e4" fill-opacity="0.2">
    <circle cx="206" cy="170" r="24"/>
    <circle cx="290" cy="124" r="12"/>
    <circle cx="390" cy="196" r="16"/>
    <circle cx="1378" cy="202" r="22"/>
    <circle cx="1470" cy="146" r="12"/>
  </g>

  <g stroke="#0f1a12" stroke-opacity="0.2" stroke-width="2">
    <path d="M84 302H566"/>
    <path d="M1038 286H1520"/>
    <path d="M680 220H940"/>
  </g>

  <g fill="#0f1a12" fill-opacity="0.18">
    <rect x="128" y="332" width="48" height="150" rx="14"/>
    <rect x="192" y="352" width="34" height="130" rx="11"/>
    <rect x="238" y="314" width="38" height="168" rx="12"/>
    <rect x="288" y="336" width="28" height="146" rx="10"/>
  </g>
</svg>
