<svg xmlns="http://www.w3.org/2000/svg" width="1600" height="700" viewBox="0 0 1600 700" fill="none">
  <defs>
    <linearGradient id="theatreBg" x1="0" y1="0" x2="1" y2="1">
      <stop offset="0%" stop-color="#251d1c"/>
      <stop offset="46%" stop-color="#613b31"/>
      <stop offset="100%" stop-color="#9a5b43"/>
    </linearGradient>
    <radialGradient id="spotlight" cx="0" cy="0" r="1" gradientTransform="translate(1180 148) rotate(126) scale(188 188)">
      <stop offset="0" stop-color="#f5d1ad" stop-opacity="0.96"/>
      <stop offset="1" stop-color="#f5d1ad" stop-opacity="0"/>
    </radialGradient>
  </defs>

  <rect width="1600" height="700" fill="url(#theatreBg)"/>
  <rect width="1600" height="700" fill="url(#spotlight)"/>

  <path d="M0 510C124 442 302 420 464 456C626 492 778 566 944 554C1110 542 1248 458 1600 502V700H0V510Z" fill="#1a1413" fill-opacity="0.5"/>
  <path d="M0 564C140 532 330 522 534 548C738 574 948 622 1128 614C1308 606 1450 564 1600 586V700H0V564Z" fill="#1a1413" fill-opacity="0.35"/>

  <path d="M128 428C194 358 286 352 364 412C454 482 570 488 672 418C786 340 898 350 1000 422C1100 492 1214 494 1328 420C1418 362 1504 362 1572 410"
        stroke="#f2d1a8" stroke-opacity="0.38" stroke-width="8" stroke-linecap="round"/>

  <g fill="#f8ede3" fill-opacity="0.14">
    <circle cx="224" cy="174" r="4"/>
    <circle cx="282" cy="130" r="3"/>
    <circle cx="364" cy="186" r="4"/>
    <circle cx="1024" cy="202" r="3"/>
    <circle cx="1080" cy="160" r="4"/>
    <circle cx="1140" cy="220" r="3"/>
  </g>

  <g fill="#f2d1a8" fill-opacity="0.14">
    <rect x="106" y="324" width="12" height="172" rx="6"/>
    <rect x="128" y="324" width="12" height="172" rx="6"/>
    <rect x="150" y="324" width="12" height="172" rx="6"/>
    <rect x="172" y="324" width="12" height="172" rx="6"/>
    <rect x="194" y="324" width="12" height="172" rx="6"/>
  </g>
</svg>
