<svg xmlns="http://www.w3.org/2000/svg" width="1600" height="700" viewBox="0 0 1600 700" fill="none">
  <defs>
    <linearGradient id="technoBg" x1="0" y1="0" x2="1" y2="1">
      <stop offset="0%" stop-color="#172744"/>
      <stop offset="52%" stop-color="#365889"/>
      <stop offset="100%" stop-color="#4b74a8"/>
    </linearGradient>
    <radialGradient id="pulse" cx="0" cy="0" r="1" gradientTransform="translate(280 156) rotate(126) scale(220 220)">
      <stop offset="0" stop-color="#ecf4ff" stop-opacity="0.92"/>
      <stop offset="0.56" stop-color="#d5e4ff" stop-opacity="0.45"/>
      <stop offset="1" stop-color="#d5e4ff" stop-opacity="0"/>
    </radialGradient>
  </defs>

  <rect width="1600" height="700" fill="url(#technoBg)"/>
  <rect width="1600" height="700" fill="url(#pulse)"/>

  <rect x="116" y="468" width="1368" height="168" rx="24" fill="#eff5ff" fill-opacity="0.24"/>
  <rect x="144" y="492" width="1312" height="122" rx="16" fill="#eff5ff" fill-opacity="0.2"/>

  <g fill="#dbe8ff" fill-opacity="0.3">
    <circle cx="844" cy="106" r="5"/>
    <circle cx="920" cy="148" r="4"/>
    <circle cx="1008" cy="96" r="6"/>
    <circle cx="1092" cy="160" r="4"/>
    <circle cx="1180" cy="126" r="5"/>
    <circle cx="1260" cy="174" r="4"/>
    <circle cx="1342" cy="108" r="6"/>
  </g>

  <path d="M140 420H1460" stroke="#dce7ff" stroke-opacity="0.22" stroke-width="2"/>
  <path d="M248 390L344 284L444 390" stroke="#dce7ff" stroke-opacity="0.26" stroke-width="6" stroke-linecap="round"/>
  <path d="M1120 402L1222 292L1330 402" stroke="#dce7ff" stroke-opacity="0.26" stroke-width="6" stroke-linecap="round"/>

  <g fill="#f0f6ff" fill-opacity="0.18">
    <rect x="162" y="520" width="210" height="18" rx="9"/>
    <rect x="392" y="520" width="180" height="18" rx="9"/>
    <rect x="592" y="520" width="198" height="18" rx="9"/>
    <rect x="810" y="520" width="164" height="18" rx="9"/>
    <rect x="994" y="520" width="214" height="18" rx="9"/>
    <rect x="1228" y="520" width="176" height="18" rx="9"/>
  </g>
</svg>
