<svg xmlns="http://www.w3.org/2000/svg" width="1600" height="700" viewBox="0 0 1600 700" fill="none">
  <defs>
    <linearGradient id="g2" x1="0" y1="0" x2="1" y2="1">
      <stop offset="0%" stop-color="#30231f"/>
      <stop offset="50%" stop-color="#6c4634"/>
      <stop offset="100%" stop-color="#9c6248"/>
    </linearGradient>
    <radialGradient id="moon" cx="0" cy="0" r="1" gradientTransform="translate(1240 132) rotate(125) scale(178 178)">
      <stop offset="0" stop-color="#f2d1a8" stop-opacity="0.95"/>
      <stop offset="1" stop-color="#f2d1a8" stop-opacity="0"/>
    </radialGradient>
  </defs>

  <rect width="1600" height="700" fill="url(#g2)"/>
  <rect width="1600" height="700" fill="url(#moon)"/>

  <path d="M0 500C120 442 284 420 430 452C576 484 736 562 900 550C1064 538 1228 454 1600 498V700H0V500Z" fill="#1c1513" fill-opacity="0.5"/>
  <path d="M0 556C140 526 320 520 512 546C704 572 928 622 1110 612C1292 602 1440 560 1600 584V700H0V556Z" fill="#1c1513" fill-opacity="0.34"/>

  <path d="M120 430C182 366 282 352 366 412C462 482 574 488 676 418C788 340 904 350 1006 422C1096 486 1206 490 1326 418C1416 364 1508 364 1570 410"
        stroke="#f2d1a8" stroke-opacity="0.38" stroke-width="8" stroke-linecap="round"/>

  <g fill="#f8ede3" fill-opacity="0.15">
    <circle cx="240" cy="172" r="4"/>
    <circle cx="300" cy="132" r="3"/>
    <circle cx="380" cy="190" r="4"/>
    <circle cx="460" cy="146" r="3"/>
    <circle cx="1030" cy="206" r="3"/>
    <circle cx="1082" cy="164" r="4"/>
    <circle cx="1140" cy="220" r="3"/>
  </g>

  <g fill="#f2d1a8" fill-opacity="0.14">
    <rect x="102" y="322" width="12" height="174" rx="6"/>
    <rect x="124" y="322" width="12" height="174" rx="6"/>
    <rect x="146" y="322" width="12" height="174" rx="6"/>
    <rect x="168" y="322" width="12" height="174" rx="6"/>
    <rect x="190" y="322" width="12" height="174" rx="6"/>
  </g>
</svg>
